<svg xmlns="http://www.w3.org/2000/svg" xmlns:svg="http://www.w3.org/2000/svg" id="Layer_1" width="446.226" height="396.025" x="0" y="0" enable-background="new 0 0 1600 1200" version="1.1" viewBox="0 0 446.226 396.025" xml:space="preserve"><metadata id="metadata144"/><g id="g3" transform="translate(-576.88698,-401.988)"><g id="g5"><g id="g7"><g id="email"><path id="path10" fill="#5a3620" d="m 890.306,557.81 29.26,11.373 0,172.027 c 0,9.753 -7.895,17.649 -17.638,17.649 l -235.998,0 c -9.743,0 -17.638,-7.896 -17.638,-17.649 l 0,-172.026 29.259,-8.937"/><path id="path12" fill="#fee70f" fill-opacity=".895" d="M 758.871,656.221 649.49,747.45 c 2.507,6.648 8.901,11.409 16.44,11.409 l 235.998,0 c 7.536,0 13.933,-4.761 16.444,-11.409 l -107.402,-91.229 -52.099,0 z"/><g id="g14"><path id="path16" fill="#f9e82d" fill-opacity="1" d="m 810.391,656.686 107.981,90.764 c -0.331,0.881 -0.744,1.726 -1.205,2.536 l 0.028,0.035 c 1.501,-2.596 2.371,-5.594 2.371,-8.81 l 0,-172.004 -109.175,87.479 z"/><path id="path18" fill="#f9e82d" fill-opacity="1" d="m 649.49,747.45 108.864,-90.764 -110.061,-87.479 0,172.003 c 0,3.216 0.876,6.214 2.367,8.81 l 0.039,-0.035 c -0.466,-0.809 -0.877,-1.654 -1.209,-2.535 z"/></g></g><path id="path20" fill="#b58765" d="m 961.81,681.214 c 0,0 -15.232,16.783 -42.244,14.73 l 0,28.14 c 13.328,-5.185 47.061,-20.036 56.854,-40.809 l -14.61,-2.061 z"/><path id="path22" fill="#fef3df" d="m 984.594,658.413 c 3.59,-9.156 7.701,-11 9.346,-11.346 -49.276,4.542 -32.99,38.693 -32.99,38.693 0,0 6.229,14.728 26.532,13.892 27.063,0.461 35.631,-50.166 35.631,-50.166 -6.654,11.655 -26.404,9.876 -38.519,8.927 z"/><ellipse id="ellipse24" cx="787.751" cy="788.545" fill="#f1f2f2" rx="210.864" ry="9.468"/><path id="path26" fill="#3d5263" d="m 783.931,446.247 c -66.396,0 -120.223,53.827 -120.223,120.223 0,66.396 53.827,120.221 120.223,120.221 66.397,0 120.222,-53.825 120.222,-120.221 0,-66.395 -53.825,-120.223 -120.222,-120.223 z m -11.96,215.702 c -53.009,0 -95.982,-43.855 -95.982,-97.953 0,-54.098 42.973,-97.952 95.982,-97.952 53.007,0 95.98,43.855 95.98,97.952 -10e-4,54.098 -42.973,97.953 -95.98,97.953 z" opacity=".1"/><g id="g28"><g id="g30"><polyline id="polyline32" fill="#3d5263" points="691.144 492.5 673.257 540.276 686.55 605.582 712.496 631.852"/><g id="g34"><g id="g36"><polyline id="polyline38" fill="#fef3df" points="658.248 450.81 673.501 487.076 693.836 496.903 724.04 458.731"/><g id="g40"><path id="path42" fill="#b58765" d="m 710.634,473.205 c 0,0 -22.482,-25.556 -49.793,-18.975 0,0 4.667,34.118 46.349,44.019 l 2.61,8.533 c 0,0 -65.612,-9.689 -59.339,-67.593 0,0 49.008,-19.884 72.598,15.106"/><polyline id="polyline44" fill="#fef3df" points="909.697 450.81 894.447 487.076 874.114 496.903 843.907 458.731"/><path id="path46" fill="#b58765" d="m 857.314,473.205 c 0,0 22.48,-25.556 49.79,-18.975 0,0 -4.664,34.118 -46.347,44.019 l -2.613,8.533 c 0,0 65.611,-9.689 59.339,-67.593 0,0 -49.006,-19.884 -72.6,15.106"/></g></g><path id="path48" fill="#b58765" d="m 726.619,647.067 55.945,0 16.40428,-204.81407 c -55.814,0 -112.41728,30.01707 -112.41728,77.85207 0,1.454 0.085,2.787 0.121,4.175 0.127,3.934 0.448,7.585 0.856,11.135 1.689,14.816 5.451,27.177 8.461,43.383 1.452,7.831 5.002,23.374 5.002,23.374 0.056,0.408 0.165,0.804 0.224,1.211 2.535,16.546 11.832,32.027 25.404,43.684 z"/><path id="path50" fill="#b58765" d="m 781.992,433.489 0,213.577 55.944,0 c 13.572,-11.657 22.867,-27.138 25.406,-43.684 0.058,-0.407 0.163,-0.803 0.221,-1.211 0,0 3.549,-15.543 5.002,-23.374 3.011,-16.206 6.774,-28.567 8.464,-43.381 0.405,-3.552 0.724,-7.203 0.846,-11.137 0.042,-1.388 0.126,-2.721 0.126,-4.175 0,-47.834 -40.191,-86.615 -96.009,-86.615 z"/><g id="g52"><g id="g54"><path id="path56" fill="#fef3df" d="m 860.944,613.502 c 0,28.321 -35.091,51.289 -78.383,51.289 -43.299,0 -78.388,-22.968 -78.388,-51.289 0,-28.325 35.089,-51.289 78.388,-51.289 43.292,0 78.383,22.964 78.383,51.289 z"/></g></g><g id="g58"><g id="g60"><g id="g62"><path id="path64" fill="#5a3620" d="m 747.044,605.582 c 0,6.215 -5.04,11.256 -11.261,11.256 -6.21,0 -11.253,-5.041 -11.253,-11.256 0,-6.223 5.043,-11.257 11.253,-11.257 6.22,0 11.261,5.034 11.261,11.257 z"/></g></g><g id="g66"><g id="g68"><path id="path70" fill="#5a3620" d="m 840.856,605.582 c 0,6.215 -5.037,11.256 -11.257,11.256 -6.218,0 -11.259,-5.041 -11.259,-11.256 0,-6.223 5.041,-11.257 11.259,-11.257 6.22,0 11.257,5.034 11.257,11.257 z"/></g></g></g><g id="g72"><path id="path74" fill="#87654a" d="m 875.228,525.835 c 0.354,-3.113 0.634,-6.311 0.743,-9.754 0.035,-1.218 0.109,-2.384 0.109,-3.661 0,-40.785 -33.369,-74.043 -80.237,-75.775 l -7.335,0.005 c -0.003,0 -0.003,0 -0.006,0 -0.007,0.018 -28.632,88.422 76.583,140.268 0.946,-4.317 2.078,-9.585 2.73,-13.088 2.64,-14.196 5.934,-25.021 7.413,-37.995 z"/></g><g id="g76"><g id="g78"><g id="g80"><g id="g82"><path id="path84" fill="#5a3620" d="m 843.907,519.681 c 0,6.964 -5.65,12.611 -12.618,12.611 -6.963,0 -12.614,-5.646 -12.614,-12.611 0,-6.97 5.651,-12.614 12.614,-12.614 6.968,0 12.618,5.644 12.618,12.614 z"/></g></g></g><g id="g86"><g id="g88"><g id="g90"><path id="path92" fill="#5a3620" d="m 752.028,519.681 c 0,6.964 -5.649,12.611 -12.612,12.611 -6.969,0 -12.612,-5.646 -12.612,-12.611 0,-6.97 5.642,-12.614 12.612,-12.614 6.964,0 12.612,5.644 12.612,12.614 z"/></g></g></g><g id="g94"><g id="g96"><path id="path98" fill="#fff" d="m 748.75,515.894 c 0,2.558 -2.071,4.629 -4.63,4.629 -2.558,0 -4.633,-2.072 -4.633,-4.629 0,-2.552 2.076,-4.626 4.633,-4.626 2.559,0 4.63,2.073 4.63,4.626 z"/></g></g><g id="g100"><g id="g102"><path id="path104" fill="#fff" d="m 839.771,515.894 c 0,2.558 -2.073,4.629 -4.629,4.629 -2.558,0 -4.631,-2.072 -4.631,-4.629 0,-2.552 2.072,-4.626 4.631,-4.626 2.555,0 4.629,2.073 4.629,4.626 z"/></g></g></g></g><path id="path106" fill="#fef3df" d="m 734.557,443.625 c 0,0 -18.236,-25.199 0,-41.637 0,0 13.125,32.012 40.242,31.502"/><path id="path108" fill="#fef3df" d="m 834.496,443.625 c 0,0 18.236,-25.199 0,-41.637 0,0 -13.126,32.012 -40.242,31.502"/><path id="path110" fill="#f1f2f2" d="m 786.264,431.965 c -66.396,0 -120.223,53.827 -120.223,120.223 0,66.396 53.827,120.221 120.223,120.221 66.397,0 120.222,-53.825 120.222,-120.221 10e-4,-66.395 -53.825,-120.223 -120.222,-120.223 z m -11.96,215.702 c -53.009,0 -95.982,-43.855 -95.982,-97.953 0,-54.098 42.973,-97.952 95.982,-97.952 53.007,0 95.979,43.855 95.979,97.952 0,54.098 -42.972,97.953 -95.979,97.953 z"/></g><g id="g112"><path id="path114" fill="#fff" d="m 781.737,436.751 c 66.396,0 120.221,53.827 120.221,120.223 0,30.718 -11.526,58.74 -30.482,79.991 21.636,-21.74 35.01,-51.708 35.01,-84.803 0,-66.395 -53.825,-120.222 -120.222,-120.222 -35.678,0 -67.721,15.549 -89.739,40.233 21.772,-21.879 51.91,-35.422 85.212,-35.422 z"/></g></g><path id="path116" fill="#3d5263" d="m 919.566,695.944 c 0,0 7.562,0.712 13.317,-0.502 l 13.013,16.12 c 0,0 -17.639,9.525 -26.33,12.523 l 0,-28.141 z" opacity=".1"/></g><path id="path124" fill="#3d5263" d="m 648.292,659.614 0,81.645 c 0,9.72 7.88,17.6 17.6,17.6 l 236.073,0 c 9.72,0 17.6,-7.88 17.6,-17.6 l 0,-24.902 c 10e-4,0 -175.814,35.524 -271.273,-56.743 z" opacity=".1"/></g></g></svg>